<svg xmlns="http://www.w3.org/2000/svg" version="1.1" xmlns:xlink="http://www.w3.org/1999/xlink" xmlns:svgjs="http://svgjs.dev/svgjs" width="1000" height="1000" viewBox="0 0 1000 1000"><rect width="1000" height="1000" fill="#000000"></rect><g transform="matrix(0.7,0,0,0.7,149.65000000000003,149.65000000000003)"><svg viewBox="0 0 280 280" data-background-color="#ffffff" preserveAspectRatio="xMidYMid meet" height="1000" width="1000" xmlns="http://www.w3.org/2000/svg" xmlns:xlink="http://www.w3.org/1999/xlink"><g id="tight-bounds" transform="matrix(1,0,0,1,0.13999999999998636,0.13999999999998636)"><svg viewBox="0 0 279.72 279.72" height="279.72" width="279.72"><g><svg viewBox="0 0 279.72 279.72" height="279.72" width="279.72"><g><svg viewBox="0 0 279.72 279.72" height="279.72" width="279.72"><g id="textblocktransform"><svg viewBox="0 0 279.72 279.72" height="279.72" width="279.72" id="textblock"><g><svg viewBox="0 0 279.72 279.72" height="279.72" width="279.72"><g transform="matrix(1,0,0,1,57.446704652707865,57.446704652707865)"><svg viewBox="0 0 164.8265906945843 164.8265906945843" height="164.8265906945843" width="164.8265906945843"><g><circle r="82" cx="82.41329534729215" cy="82.41329534729215" fill="#ffffff" data-fill-palette-color="accent"></circle><svg xmlns="http://www.w3.org/2000/svg" xmlns:xlink="http://www.w3.org/1999/xlink" version="1.1" x="24.723988604187646" y="24.72398860418764" viewBox="10.402000000000008 2.582 79.195 94.837" enable-background="new 0 0 100 100" xml:space="preserve" height="115.378613486209" width="115.378613486209" class="icon-kg-0" data-fill-palette-color="quaternary" id="kg-0"><path d="M53.29 59.879c7-11.8 21.489-13.281 21.489-13.281-12.437 6.529-17.837 14.818-18.605 19.902 31.911 5.197 33.423-27.97 33.423-27.97C59.327 33.139 54.48 52.568 53.29 59.879zM39.71 37.597c0 0 0.245-10.657-7.496-17.334 0 0 8.457 3.567 12.003 12.507 0.361-5.378-0.366-19.526-22.712-20.689C21.503 12.081 19.293 34.743 39.71 37.597zM53.711 85.054C51.288 76.99 43.323 43.12 65.504 2.582c0 0-31.401 32.871-22.683 82.522-18.401 0.496-32.419 3.043-32.419 6.113 0 3.425 17.446 6.202 38.966 6.202 21.52 0 38.966-2.777 38.966-6.202C88.335 88.025 73.187 85.398 53.711 85.054z" fill="#000000" data-fill-palette-color="quaternary"></path></svg></g></svg></g><g><path d="M19.932 109.41l-16.227-5.278 2.186-6.718c0.806-2.479 2.103-4.173 3.89-5.083 1.788-0.91 4.037-0.924 6.749-0.043v0c2.711 0.882 4.522 2.217 5.431 4.004 0.91 1.788 0.962 3.921 0.156 6.4v0zM18.137 105.034l1.07-3.289c0.452-1.389 0.372-2.579-0.238-3.571-0.61-0.992-1.687-1.739-3.228-2.241v0l-0.718-0.233c-1.542-0.501-2.851-0.531-3.928-0.088-1.077 0.443-1.842 1.359-2.294 2.748v0l-1.07 3.29z" fill="#ffffff" data-fill-palette-color="primary"></path><path d="M26.325 91.342l-15.572-6.976 1.474-3.29 15.572 6.976z" fill="#ffffff" data-fill-palette-color="primary"></path><path d="M32.273 80.15l-17.822-3.414 1.998-3.361 9.676 2.022c0.549 0.115 1.752 0.396 3.609 0.841v0l0.064-0.108c-1.296-1.389-2.126-2.297-2.49-2.724v0l-6.407-7.517 1.917-3.225 11.518 14.018z" fill="#ffffff" data-fill-palette-color="primary"></path><path d="M37.402 71.52l-9.205-15.839 2.819-3.544 17.504 5.406-2.447 3.076-3.308-1.078-4.835 6.078 1.794 2.981zM36.274 62.869l3.419-4.298-4.392-1.432c-0.537-0.177-1.634-0.595-3.291-1.251v0l-0.078 0.099c1.017 1.461 1.67 2.435 1.959 2.924v0z" fill="#ffffff" data-fill-palette-color="primary"></path><path d="M55.985 50.13l-11.531-12.579 2.658-2.436 11.53 12.578z" fill="#ffffff" data-fill-palette-color="primary"></path><path d="M62.183 44.879l-10.094-13.758 2.831-2.077 10.777 3.598c0.329 0.105 0.925 0.357 1.789 0.754v0l0.058-0.133-0.915-1.123-5.574-7.597 2.831-2.077 10.094 13.757-2.831 2.077-10.846-3.638c-0.518-0.175-1.105-0.425-1.759-0.75v0l-0.05 0.128c0.461 0.546 0.774 0.931 0.94 1.156v0l5.58 7.606z" fill="#ffffff" data-fill-palette-color="primary"></path><path d="M81.788 32.101l-13.307-12.338 3.475-1.792 7.135 6.841c0.405 0.389 1.277 1.264 2.616 2.625v0l0.111-0.057c-0.364-1.864-0.586-3.074-0.668-3.63v0l-1.452-9.77 3.335-1.719 2.341 17.991z" fill="#ffffff" data-fill-palette-color="primary"></path><path d="M93.522 26.402l-5.791-16.051 12.61-4.549 1.039 2.879-9.219 3.326 1.274 3.529 8.193-2.956 1.039 2.879-8.194 2.956 1.402 3.885 9.356-3.376 1.039 2.879z" fill="#ffffff" data-fill-palette-color="primary"></path><path d="M116.668 19.911c-1.28 0.263-2.495 0.305-3.644 0.127-1.142-0.179-2.112-0.594-2.909-1.244-0.79-0.651-1.298-1.528-1.524-2.63v0l-0.089-0.538 3.584-0.735 0.059 0.395c0.146 0.712 0.577 1.215 1.294 1.51 0.724 0.294 1.654 0.324 2.79 0.091v0c1.198-0.246 2.034-0.585 2.509-1.017 0.469-0.424 0.649-0.904 0.54-1.437v0c-0.097-0.472-0.352-0.83-0.766-1.074-0.415-0.25-0.905-0.414-1.47-0.49-0.565-0.077-1.34-0.15-2.324-0.219v0c-1.391-0.107-2.526-0.249-3.404-0.425-0.885-0.175-1.69-0.538-2.416-1.088-0.721-0.558-1.194-1.389-1.42-2.491v0c-0.313-1.526 0.065-2.813 1.134-3.86 1.075-1.055 2.635-1.792 4.682-2.212v0c1.93-0.396 3.592-0.309 4.986 0.262 1.401 0.569 2.269 1.675 2.606 3.317v0l0.059 0.288-3.511 0.72-0.045-0.216c-0.126-0.616-0.507-1.045-1.14-1.285-0.636-0.248-1.433-0.273-2.391-0.077v0c-1.02 0.209-1.775 0.51-2.265 0.903-0.485 0.385-0.677 0.82-0.578 1.306v0c0.077 0.376 0.304 0.665 0.681 0.867 0.376 0.201 0.829 0.336 1.356 0.406 0.521 0.071 1.252 0.139 2.193 0.203v0c1.408 0.082 2.575 0.21 3.502 0.384 0.92 0.175 1.759 0.542 2.515 1.1 0.762 0.55 1.257 1.379 1.484 2.488v0c0.366 1.787-0.004 3.232-1.111 4.336-1.101 1.103-2.756 1.881-4.967 2.335z" fill="#ffffff" data-fill-palette-color="primary"></path><path d="M131.633 17.59l-0.88-13.923-5.261 0.332-0.196-3.107 14.121-0.892 0.196 3.107-5.261 0.332 0.88 13.923z" fill="#ffffff" data-fill-palette-color="primary"></path><path d="M158.572 18.825c-1.295-0.175-2.455-0.537-3.481-1.085-1.019-0.547-1.797-1.259-2.333-2.135-0.53-0.876-0.72-1.871-0.569-2.986v0l0.094-0.537 3.625 0.491-0.074 0.392c-0.098 0.72 0.143 1.338 0.722 1.853 0.586 0.517 1.453 0.853 2.602 1.009v0c1.212 0.164 2.113 0.121 2.705-0.131 0.583-0.245 0.911-0.638 0.984-1.178v0c0.065-0.478-0.058-0.9-0.368-1.266-0.309-0.373-0.717-0.69-1.225-0.949-0.508-0.259-1.215-0.584-2.121-0.975v0c-1.278-0.561-2.302-1.07-3.072-1.527-0.777-0.458-1.417-1.066-1.921-1.826-0.496-0.765-0.668-1.705-0.517-2.82v0c0.209-1.544 0.991-2.633 2.347-3.267 1.363-0.64 3.08-0.82 5.15-0.54v0c1.953 0.265 3.492 0.896 4.619 1.895 1.134 1 1.588 2.331 1.363 3.993v0l-0.039 0.29-3.552-0.481 0.029-0.218c0.084-0.623-0.133-1.153-0.652-1.59-0.518-0.444-1.262-0.732-2.231-0.863v0c-1.032-0.14-1.844-0.105-2.436 0.103-0.585 0.203-0.91 0.55-0.977 1.042v0c-0.052 0.381 0.067 0.728 0.356 1.043 0.289 0.314 0.671 0.592 1.146 0.832 0.468 0.24 1.135 0.545 2.002 0.916v0c1.301 0.543 2.361 1.05 3.179 1.52 0.811 0.469 1.481 1.093 2.01 1.87 0.537 0.771 0.73 1.717 0.578 2.839v0c-0.245 1.807-1.072 3.049-2.483 3.725-1.403 0.677-3.223 0.864-5.46 0.561z" fill="#ffffff" data-fill-palette-color="primary"></path><path d="M177.007 23.002c-2.621-0.77-4.449-2.072-5.483-3.905-1.034-1.833-1.136-4.165-0.304-6.994v0c0.833-2.836 2.181-4.745 4.043-5.727 1.862-0.982 4.103-1.088 6.724-0.318v0c2.641 0.776 4.479 2.081 5.514 3.915 1.034 1.833 1.135 4.168 0.301 7.003v0c-0.831 2.829-2.178 4.735-4.04 5.717-1.862 0.982-4.113 1.085-6.755 0.309zM177.867 20.076c1.562 0.459 2.878 0.354 3.949-0.314 1.069-0.662 1.845-1.817 2.33-3.467v0l0.213-0.724c0.485-1.649 0.458-3.045-0.081-4.186-0.54-1.135-1.592-1.932-3.154-2.391v0c-1.555-0.457-2.864-0.354-3.925 0.31-1.064 0.671-1.838 1.83-2.323 3.48v0l-0.213 0.724c-0.485 1.649-0.46 3.04 0.074 4.173 0.532 1.14 1.575 1.938 3.13 2.395z" fill="#ffffff" data-fill-palette-color="primary"></path><path d="M188.739 26.66l7.119-15.508 3.277 1.504-5.812 12.66 8.364 3.839-1.308 2.848z" fill="#ffffff" data-fill-palette-color="primary"></path><path d="M209.269 37.985c-1.939-1.234-3.147-2.669-3.621-4.305-0.475-1.636-0.129-3.37 1.038-5.204v0l5.757-9.045 3.042 1.935-5.661 8.896c-0.66 1.038-0.89 1.997-0.689 2.879 0.191 0.884 0.782 1.641 1.772 2.271v0c0.996 0.634 1.944 0.856 2.843 0.666 0.89-0.188 1.665-0.8 2.325-1.837v0l5.662-8.896 3.05 1.942-5.757 9.045c-1.167 1.833-2.595 2.879-4.283 3.139-1.689 0.259-3.515-0.237-5.478-1.486z" fill="#ffffff" data-fill-palette-color="primary"></path><path d="M222.015 47.152l9.154-10.527-3.978-3.46 2.042-2.349 10.678 9.285-2.043 2.349-3.978-3.46-9.155 10.528z" fill="#ffffff" data-fill-palette-color="primary"></path><path d="M231.155 55.52l12.309-11.818 2.497 2.601-12.309 11.817z" fill="#ffffff" data-fill-palette-color="primary"></path><path d="M241.082 68.124c-1.645-2.181-2.336-4.316-2.073-6.405 0.263-2.089 1.571-4.021 3.925-5.796v0c2.36-1.78 4.58-2.509 6.661-2.188 2.08 0.321 3.943 1.573 5.588 3.754v0c1.658 2.198 2.355 4.341 2.092 6.43-0.263 2.089-1.574 4.023-3.934 5.803v0c-2.354 1.776-4.572 2.503-6.652 2.181-2.08-0.321-3.949-1.581-5.607-3.779zM243.517 66.287c0.98 1.3 2.099 2.001 3.358 2.102 1.252 0.106 2.565-0.359 3.937-1.394v0l0.603-0.454c1.372-1.035 2.183-2.171 2.431-3.409 0.243-1.233-0.126-2.5-1.107-3.8v0c-0.976-1.294-2.088-1.991-3.336-2.091-1.254-0.096-2.567 0.374-3.94 1.408v0l-0.602 0.455c-1.372 1.035-2.182 2.166-2.429 3.394-0.252 1.232 0.109 2.495 1.085 3.789z" fill="#ffffff" data-fill-palette-color="primary"></path><path d="M248.291 78.021l15.015-8.106 1.668 3.089-5.045 10.181c-0.15 0.311-0.481 0.867-0.994 1.668v0l0.125 0.076 1.238-0.752 8.291-4.477 1.668 3.09-15.015 8.107-1.668-3.09 5.095-10.243c0.244-0.489 0.572-1.036 0.985-1.64v0l-0.12-0.066c-0.604 0.382-1.029 0.639-1.274 0.771v0l-8.301 4.482z" fill="#ffffff" data-fill-palette-color="primary"></path><path d="M258.689 101.149c-0.442-1.23-0.657-2.426-0.644-3.588 0.015-1.156 0.287-2.175 0.817-3.056 0.532-0.874 1.328-1.502 2.386-1.883v0l0.52-0.165 1.238 3.443-0.382 0.115c-0.684 0.246-1.121 0.745-1.311 1.496-0.188 0.758-0.086 1.683 0.307 2.774v0c0.414 1.151 0.868 1.93 1.364 2.339 0.487 0.404 0.987 0.514 1.499 0.329v0c0.454-0.163 0.772-0.467 0.954-0.91 0.189-0.446 0.281-0.955 0.276-1.525-0.004-0.57-0.043-1.347-0.114-2.332v0c-0.092-1.393-0.113-2.536-0.064-3.43 0.047-0.901 0.292-1.75 0.733-2.546 0.45-0.793 1.204-1.38 2.263-1.761v0c1.466-0.527 2.794-0.336 3.982 0.574 1.197 0.914 2.149 2.353 2.856 4.319v0c0.667 1.854 0.817 3.512 0.451 4.973-0.364 1.467-1.334 2.485-2.913 3.052v0l-0.276 0.099-1.212-3.373 0.207-0.075c0.592-0.213 0.962-0.65 1.11-1.312 0.155-0.664 0.067-1.457-0.265-2.378v0c-0.352-0.98-0.758-1.684-1.216-2.113-0.45-0.425-0.908-0.553-1.375-0.386v0c-0.362 0.13-0.615 0.396-0.761 0.797-0.145 0.401-0.215 0.868-0.209 1.401 0.003 0.526 0.04 1.259 0.111 2.199v0c0.119 1.405 0.159 2.579 0.119 3.521-0.042 0.936-0.286 1.818-0.731 2.646-0.436 0.832-1.186 1.44-2.251 1.824v0c-1.716 0.617-3.2 0.456-4.451-0.483-1.248-0.932-2.254-2.46-3.018-4.585z" fill="#ffffff" data-fill-palette-color="primary"></path><path d="M9.661 178.696l9.768-0.94 0.544 1.959-9.765 0.95z" fill="#ffffff" data-fill-palette-color="primary"></path><path d="M11.084 183.679l9.692-1.537 0.646 1.873-4.273 4.39c-0.125 0.132-0.365 0.355-0.722 0.671v0l0.024 0.069 0.807-0.167 5.569-0.891 0.649 1.883-9.692 1.536-0.646-1.872 4.299-4.411c0.206-0.197 0.444-0.416 0.716-0.657v0l-0.024-0.069-0.84 0.168-5.556 0.896z" fill="#ffffff" data-fill-palette-color="primary"></path><path d="M15.979 196.97l8.124-5.532 0.84 1.91-4.496 2.951c-0.253 0.172-0.819 0.532-1.701 1.08v0l0.03 0.067c1.14 0.041 1.88 0.074 2.219 0.1v0l5.957 0.369 0.881 2.005-10.934-0.858z" fill="#ffffff" data-fill-palette-color="primary"></path><path d="M19.286 204.321l9.32-3.073 3.595 6.683-1.682 0.547-2.626-4.883-2.048 0.685 2.334 4.338-1.667 0.552-2.339-4.348-2.252 0.747 2.671 4.966-1.672 0.543z" fill="#ffffff" data-fill-palette-color="primary"></path><path d="M26.565 217.381c-0.653-1.017-1.006-1.969-1.061-2.857-0.048-0.891 0.266-1.553 0.942-1.986v0c0.206-0.132 0.45-0.243 0.733-0.334v0l1.121 1.747c-0.043 0.011-0.109 0.037-0.199 0.078-0.094 0.035-0.167 0.07-0.22 0.104v0c-0.294 0.189-0.44 0.473-0.437 0.853 0.007 0.386 0.172 0.832 0.497 1.337v0c0.404 0.629 0.789 1.029 1.157 1.201 0.367 0.171 0.701 0.161 1-0.032v0c0.2-0.128 0.32-0.309 0.362-0.543 0.043-0.243 0.035-0.508-0.024-0.795-0.059-0.286-0.153-0.666-0.283-1.138v0c-0.19-0.658-0.321-1.205-0.392-1.641-0.07-0.445-0.041-0.879 0.086-1.301 0.13-0.432 0.415-0.789 0.856-1.073v0c0.559-0.358 1.126-0.515 1.704-0.47 0.581 0.051 1.13 0.267 1.649 0.648 0.522 0.387 0.989 0.901 1.4 1.542v0c0.608 0.947 0.936 1.815 0.987 2.605 0.046 0.784-0.257 1.385-0.91 1.804v0c-0.147 0.094-0.355 0.203-0.625 0.327v0l-1.098-1.712c0.121-0.044 0.217-0.089 0.287-0.134v0c0.253-0.162 0.375-0.411 0.368-0.747-0.014-0.332-0.156-0.709-0.428-1.132v0c-0.34-0.529-0.682-0.895-1.027-1.097-0.342-0.196-0.648-0.207-0.919-0.034v0c-0.171 0.109-0.269 0.272-0.296 0.49-0.027 0.217-0.011 0.455 0.049 0.716 0.059 0.261 0.157 0.626 0.291 1.095v0c0.198 0.67 0.334 1.239 0.41 1.705 0.071 0.461 0.046 0.913-0.076 1.357-0.122 0.444-0.41 0.811-0.863 1.101v0c-0.653 0.419-1.292 0.601-1.917 0.545-0.635-0.058-1.214-0.288-1.738-0.69-0.528-0.409-0.99-0.922-1.386-1.539z" fill="#ffffff" data-fill-palette-color="primary"></path><path d="M31.696 224.57l7.143-3.657-1.796-2.374 1.587-0.82 4.839 6.394-1.594 0.812-1.803-2.382-7.143 3.657z" fill="#ffffff" data-fill-palette-color="primary"></path><path d="M33.351 230.421l2.432-0.506-0.492-0.6 1.71-0.956 1.237 1.506-1.56 0.875-2.689 0.458z" fill="#ffffff" data-fill-palette-color="primary"></path><path d="M42.004 237.01l8.02-5.656 3.132 3.108c0.828 0.822 1.283 1.603 1.365 2.345 0.092 0.741-0.165 1.416-0.77 2.026v0c-0.556 0.56-1.168 0.879-1.834 0.956-0.667 0.077-1.31-0.04-1.929-0.349v0l-1.839 3.668-1.525-1.513 1.781-3.312-1.964-1.95-2.986 2.117zM47.853 235.342l2.053 2.038c0.377 0.374 0.761 0.563 1.151 0.566 0.39 0.003 0.753-0.163 1.088-0.5v0c0.241-0.243 0.354-0.51 0.338-0.802-0.026-0.291-0.192-0.59-0.5-0.895v0l-1.957-1.942z" fill="#ffffff" data-fill-palette-color="primary"></path><path d="M50.241 245.056l7.518-6.308 5.815 4.876-1.359 1.131-4.249-3.562-1.648 1.394 3.775 3.165-1.344 1.13-3.783-3.171-1.815 1.528 4.321 3.623-1.352 1.123z" fill="#ffffff" data-fill-palette-color="primary"></path><path d="M57.782 251.386l10.047-4.731 2.088 1.477-3.886 9.088-1.703-1.204 0.758-1.724-3.629-2.566-1.887 0.925zM63.231 250.888l2.559 1.809 1.025-2.266c0.116-0.286 0.401-0.863 0.853-1.733v0l-0.051-0.036c-0.954 0.515-1.587 0.846-1.898 0.994v0z" fill="#ffffff" data-fill-palette-color="primary"></path><path d="M67.941 258.486l6.394-7.445 3.229 1.912c1.094 0.648 1.767 1.315 2.019 2 0.256 0.679 0.159 1.398-0.29 2.155v0c-0.595 1.004-1.359 1.595-2.292 1.773-0.937 0.184-1.944-0.043-3.02-0.68v0l-2.084-1.234-2.198 2.56zM73.04 255.634l1.804 1.068c0.505 0.299 0.984 0.416 1.436 0.352 0.443-0.062 0.803-0.328 1.082-0.798v0c0.409-0.691 0.202-1.281-0.622-1.768v0l-1.804-1.068z" fill="#ffffff" data-fill-palette-color="primary"></path><path d="M74.17 264.752l2.058-1.391-0.683-0.368 1.219-1.534 1.716 0.924-1.111 1.401-2.313 1.445z" fill="#ffffff" data-fill-palette-color="primary"></path><path d="M86.824 268.465l4.343-6.748-2.745-1.152 0.962-1.506 7.394 3.102-0.972 1.502-2.754-1.156-4.343 6.749z" fill="#ffffff" data-fill-palette-color="primary"></path><path d="M92.003 270.677l8.272-7.41 2.423 0.817-1.121 9.821-1.976-0.667 0.231-1.868-4.211-1.42-1.543 1.427zM97.081 268.639l2.97 1.001 0.333-2.464c0.03-0.307 0.137-0.942 0.321-1.905v0l-0.059-0.02c-0.767 0.766-1.278 1.265-1.534 1.496v0z" fill="#ffffff" data-fill-palette-color="primary"></path><path d="M107.833 275.76c-1.173-0.293-2.083-0.744-2.73-1.352-0.646-0.615-0.871-1.313-0.676-2.093v0c0.059-0.237 0.161-0.486 0.305-0.744v0l2.014 0.503c-0.024 0.037-0.054 0.102-0.092 0.193-0.044 0.09-0.074 0.165-0.089 0.227v0c-0.085 0.339 0.004 0.646 0.267 0.92 0.269 0.276 0.696 0.487 1.278 0.633v0c0.725 0.181 1.28 0.209 1.665 0.082 0.385-0.127 0.62-0.363 0.707-0.709v0c0.058-0.23 0.021-0.445-0.109-0.643-0.136-0.207-0.323-0.394-0.562-0.562-0.239-0.168-0.568-0.38-0.986-0.636v0c-0.59-0.349-1.06-0.658-1.411-0.926-0.356-0.276-0.632-0.612-0.828-1.006-0.202-0.403-0.239-0.859-0.112-1.368v0c0.161-0.644 0.467-1.147 0.918-1.51 0.458-0.361 1.006-0.58 1.645-0.658 0.646-0.076 1.338-0.022 2.077 0.163v0c1.091 0.273 1.926 0.68 2.504 1.221 0.571 0.539 0.762 1.185 0.574 1.937v0c-0.042 0.169-0.12 0.391-0.232 0.666v0l-1.972-0.494c0.058-0.115 0.097-0.214 0.117-0.295v0c0.073-0.291-0.008-0.557-0.244-0.795-0.237-0.232-0.6-0.409-1.088-0.532v0c-0.61-0.153-1.11-0.184-1.5-0.094-0.383 0.091-0.614 0.293-0.691 0.605v0c-0.049 0.197-0.009 0.383 0.119 0.559 0.129 0.176 0.304 0.339 0.526 0.488 0.222 0.149 0.543 0.348 0.964 0.598v0c0.603 0.353 1.092 0.673 1.466 0.961 0.368 0.286 0.659 0.633 0.874 1.04 0.215 0.407 0.257 0.871 0.127 1.393v0c-0.188 0.752-0.529 1.323-1.022 1.711-0.502 0.393-1.081 0.623-1.739 0.688-0.664 0.064-1.352 0.007-2.064-0.171z" fill="#ffffff" data-fill-palette-color="primary"></path><path d="M116.497 277.479l2.694-7.559-2.935-0.497 0.594-1.686 7.906 1.339-0.604 1.684-2.945-0.499-2.694 7.559z" fill="#ffffff" data-fill-palette-color="primary"></path><path d="M123.981 278.676l2.579-9.468 7.557 0.689-0.471 1.704-5.522-0.503-0.558 2.085 4.905 0.448-0.459 1.694-4.917-0.448-0.619 2.29 5.616 0.513-0.471 1.693z" fill="#ffffff" data-fill-palette-color="primary"></path><path d="M139.748 279.72l1.484-9.701 6.989-0.163-0.264 1.747-4.956 0.115-0.364 2.389 4.433-0.104-0.254 1.736-4.442 0.104-0.582 3.829z" fill="#ffffff" data-fill-palette-color="primary"></path><path d="M149.588 279.444l0.955-9.767 2.027-0.157-0.945 9.766z" fill="#ffffff" data-fill-palette-color="primary"></path><path d="M154.751 279.006l0.356-9.808 1.962-0.274 3.486 5.038c0.105 0.148 0.278 0.427 0.519 0.838v0l0.073-0.011-0.009-0.824 0.197-5.636 1.972-0.276-0.355 9.808-1.962 0.273-3.502-5.067c-0.153-0.24-0.322-0.516-0.507-0.828v0l-0.073 0.01 0.004 0.856-0.189 5.625z" fill="#ffffff" data-fill-palette-color="primary"></path><path d="M165.281 277.535l3.186-10.638 2.494-0.568 4.171 8.961-2.034 0.463-0.778-1.715-4.333 0.988-0.571 2.022zM168.548 273.146l3.055-0.696-1.002-2.277c-0.135-0.277-0.375-0.875-0.721-1.792v0l-0.061 0.014c-0.254 1.054-0.43 1.746-0.526 2.077v0z" fill="#ffffff" data-fill-palette-color="primary"></path><path d="M177.362 274.709l-1.309-9.726 1.887-0.602 4.289 4.375c0.129 0.128 0.347 0.374 0.654 0.737v0l0.069-0.022-0.148-0.811-0.76-5.588 1.898-0.606 1.309 9.726-1.888 0.602-4.308-4.401c-0.192-0.21-0.405-0.454-0.64-0.731v0l-0.07 0.022 0.148 0.844 0.766 5.575z" fill="#ffffff" data-fill-palette-color="primary"></path><path d="M192.457 269.606c-2.506 1.035-4.239 0.39-5.199-1.935v0c-0.395-0.956-0.606-1.916-0.633-2.88-0.028-0.964 0.166-1.841 0.58-2.632v0c0.264-0.495 0.625-0.939 1.083-1.332 0.461-0.402 1.012-0.735 1.651-0.999v0c1.098-0.453 2.077-0.582 2.936-0.385 0.857 0.19 1.473 0.738 1.846 1.642v0c0.083 0.2 0.162 0.447 0.238 0.741v0l-1.937 0.8c-0.028-0.14-0.068-0.274-0.121-0.404v0c-0.203-0.491-0.513-0.794-0.931-0.908-0.427-0.119-0.902-0.07-1.425 0.146v0c-0.801 0.331-1.344 0.846-1.63 1.546-0.285 0.7-0.323 1.524-0.112 2.474v0c0.134 0.617 0.258 1.065 0.373 1.342v0c0.533 1.292 1.43 1.677 2.689 1.158v0c0.665-0.275 1.159-0.671 1.482-1.191 0.316-0.516 0.412-1.089 0.288-1.718v0l1.87-0.772c0.186 0.815 0.172 1.57-0.041 2.263-0.213 0.693-0.581 1.294-1.103 1.805-0.526 0.52-1.161 0.933-1.904 1.239z" fill="#ffffff" data-fill-palette-color="primary"></path><path d="M198.843 266.689l-2.714-9.431 1.826-0.894 2.723 9.426z" fill="#ffffff" data-fill-palette-color="primary"></path><path d="M202.707 264.817l-0.017-11.105 2.224-1.264 6.578 7.377-1.814 1.031-1.239-1.418-3.864 2.196 0.036 2.101zM204.569 259.672l2.725-1.548-1.616-1.891c-0.209-0.227-0.611-0.73-1.207-1.508v0l-0.054 0.031c0.061 1.083 0.092 1.796 0.094 2.14v0z" fill="#ffffff" data-fill-palette-color="primary"></path><path d="M213.431 258.647l-3.99-8.962 1.697-1.14 3.254 7.322 4.323-2.906 0.736 1.64z" fill="#ffffff" data-fill-palette-color="primary"></path><path d="M228.782 247.462c-0.921 0.784-1.816 1.262-2.688 1.435-0.876 0.168-1.574-0.055-2.095-0.667v0c-0.159-0.186-0.301-0.413-0.429-0.681v0l1.581-1.345c0.017 0.041 0.051 0.103 0.104 0.187 0.047 0.088 0.092 0.156 0.132 0.204v0c0.226 0.266 0.528 0.372 0.904 0.318 0.381-0.059 0.801-0.283 1.258-0.672v0c0.569-0.485 0.914-0.92 1.035-1.308 0.12-0.387 0.065-0.716-0.166-0.987v0c-0.154-0.181-0.35-0.276-0.587-0.285-0.247-0.01-0.508 0.034-0.784 0.13-0.275 0.097-0.639 0.241-1.09 0.433v0c-0.627 0.277-1.151 0.48-1.574 0.61-0.432 0.129-0.865 0.158-1.3 0.088-0.445-0.07-0.838-0.305-1.178-0.704v0c-0.43-0.505-0.662-1.047-0.695-1.625-0.028-0.582 0.113-1.156 0.421-1.721 0.313-0.57 0.76-1.101 1.34-1.595v0c0.857-0.729 1.673-1.172 2.449-1.327 0.771-0.151 1.407 0.068 1.91 0.659v0c0.113 0.133 0.249 0.325 0.407 0.576v0l-1.548 1.318c-0.06-0.114-0.118-0.203-0.172-0.267v0c-0.195-0.229-0.458-0.317-0.789-0.264-0.327 0.058-0.682 0.25-1.065 0.576v0c-0.479 0.408-0.795 0.796-0.949 1.165-0.148 0.365-0.118 0.67 0.09 0.915v0c0.131 0.154 0.306 0.23 0.525 0.228 0.218-0.002 0.453-0.05 0.703-0.144 0.25-0.094 0.599-0.239 1.046-0.437v0c0.638-0.286 1.183-0.497 1.635-0.634 0.447-0.133 0.898-0.168 1.354-0.107 0.456 0.061 0.858 0.297 1.207 0.707v0c0.503 0.591 0.769 1.199 0.798 1.826 0.028 0.637-0.122 1.242-0.451 1.815-0.334 0.578-0.78 1.105-1.339 1.58z" fill="#ffffff" data-fill-palette-color="primary"></path><path d="M236.813 240.035c-0.859 0.861-1.698 1.346-2.518 1.456-0.82 0.11-1.579-0.183-2.276-0.879v0c-0.198-0.197-0.386-0.424-0.565-0.681v0l-3.49-4.946 1.443-1.447 3.483 4.968c0.134 0.183 0.25 0.323 0.349 0.422v0c0.747 0.745 1.538 0.699 2.372-0.136v0c0.469-0.47 0.727-0.987 0.776-1.55 0.049-0.563-0.13-1.131-0.536-1.704v0l-3.483-4.968 1.443-1.448 3.542 5.043c1.465 2.083 1.285 4.04-0.54 5.87z" fill="#ffffff" data-fill-palette-color="primary"></path><path d="M244.6 231.551c-1.744 2.075-3.579 2.304-5.505 0.685v0c-0.792-0.665-1.422-1.419-1.893-2.261-0.47-0.842-0.704-1.71-0.701-2.602v0c0.006-0.561 0.121-1.121 0.345-1.682 0.223-0.57 0.558-1.12 1.003-1.649v0c0.764-0.909 1.573-1.475 2.427-1.698 0.848-0.227 1.647-0.026 2.395 0.603v0c0.166 0.139 0.35 0.322 0.554 0.548v0l-1.349 1.604c-0.089-0.111-0.187-0.212-0.294-0.302v0c-0.407-0.342-0.822-0.467-1.245-0.375-0.433 0.092-0.832 0.355-1.197 0.788v0c-0.557 0.663-0.801 1.371-0.731 2.124 0.07 0.753 0.418 1.501 1.043 2.245v0c0.404 0.486 0.721 0.825 0.951 1.019v0c1.07 0.899 2.043 0.827 2.92-0.216v0c0.463-0.551 0.718-1.131 0.764-1.74 0.042-0.604-0.137-1.156-0.538-1.657v0l1.302-1.548c0.541 0.637 0.878 1.313 1.009 2.025 0.131 0.713 0.083 1.416-0.145 2.11-0.227 0.704-0.598 1.364-1.115 1.979z" fill="#ffffff" data-fill-palette-color="primary"></path><path d="M251.645 222.429c-1.562 2.216-3.371 2.599-5.427 1.15v0c-0.845-0.596-1.538-1.293-2.077-2.092-0.539-0.799-0.846-1.644-0.92-2.534v0c-0.042-0.559 0.025-1.128 0.201-1.705 0.174-0.587 0.461-1.163 0.859-1.728v0c0.684-0.971 1.442-1.604 2.274-1.898 0.826-0.298 1.639-0.166 2.439 0.398v0c0.177 0.125 0.376 0.291 0.597 0.498v0l-1.208 1.714c-0.098-0.103-0.204-0.195-0.318-0.276v0c-0.434-0.306-0.858-0.396-1.273-0.269-0.424 0.129-0.799 0.424-1.125 0.887v0c-0.499 0.708-0.682 1.434-0.548 2.178 0.134 0.744 0.544 1.46 1.229 2.149v0c0.444 0.45 0.789 0.761 1.035 0.935v0c1.142 0.805 2.106 0.651 2.891-0.463v0c0.415-0.588 0.619-1.188 0.613-1.799-0.009-0.605-0.235-1.14-0.676-1.605v0l1.165-1.653c0.593 0.589 0.986 1.233 1.177 1.932 0.191 0.699 0.203 1.404 0.035 2.115-0.166 0.721-0.481 1.409-0.943 2.066z" fill="#ffffff" data-fill-palette-color="primary"></path><path d="M255.513 216.478l-7.477-6.356 3.833-6.549 1.343 1.15-2.801 4.785 1.651 1.392 2.489-4.252 1.339 1.136-2.495 4.261 1.811 1.533 2.849-4.866 1.334 1.145z" fill="#ffffff" data-fill-palette-color="primary"></path><path d="M262.872 203.463c-0.529 1.087-1.157 1.885-1.887 2.393-0.735 0.505-1.464 0.582-2.186 0.231v0c-0.22-0.107-0.442-0.258-0.666-0.452v0l0.907-1.867c0.032 0.031 0.088 0.074 0.171 0.13 0.079 0.062 0.146 0.106 0.203 0.133v0c0.314 0.153 0.633 0.129 0.955-0.071 0.326-0.207 0.62-0.58 0.883-1.121v0c0.327-0.672 0.468-1.21 0.423-1.613-0.045-0.403-0.228-0.682-0.548-0.837v0c-0.214-0.104-0.431-0.112-0.652-0.026-0.23 0.09-0.452 0.235-0.666 0.434-0.213 0.199-0.488 0.477-0.825 0.834v0c-0.463 0.505-0.862 0.902-1.196 1.19-0.344 0.291-0.729 0.492-1.156 0.603-0.436 0.114-0.89 0.057-1.361-0.172v0c-0.597-0.29-1.026-0.693-1.289-1.209-0.259-0.522-0.361-1.104-0.305-1.745 0.058-0.648 0.254-1.314 0.587-1.999v0c0.492-1.012 1.062-1.745 1.71-2.199 0.645-0.448 1.316-0.502 2.014-0.163v0c0.157 0.076 0.358 0.198 0.604 0.364v0l-0.889 1.829c-0.101-0.08-0.189-0.139-0.264-0.176v0c-0.27-0.131-0.547-0.106-0.829 0.075-0.276 0.184-0.524 0.503-0.744 0.955v0c-0.275 0.566-0.409 1.048-0.402 1.449 0.011 0.394 0.16 0.661 0.45 0.801v0c0.182 0.089 0.373 0.088 0.572-0.002 0.199-0.09 0.394-0.228 0.586-0.414 0.192-0.186 0.453-0.46 0.783-0.82v0c0.469-0.518 0.884-0.93 1.243-1.237 0.356-0.301 0.755-0.515 1.197-0.641 0.442-0.127 0.905-0.072 1.39 0.163v0c0.698 0.339 1.185 0.79 1.463 1.352 0.281 0.572 0.387 1.186 0.316 1.844-0.074 0.663-0.271 1.325-0.592 1.984z" fill="#ffffff" data-fill-palette-color="primary"></path><path d="M267.181 193.636c-0.441 1.125-1.005 1.97-1.691 2.535-0.693 0.561-1.413 0.696-2.162 0.402v0c-0.228-0.089-0.461-0.222-0.699-0.398v0l0.757-1.932c0.034 0.028 0.094 0.067 0.18 0.115 0.083 0.055 0.154 0.094 0.213 0.117v0c0.325 0.128 0.641 0.079 0.947-0.146 0.309-0.232 0.572-0.627 0.791-1.187v0c0.273-0.696 0.371-1.243 0.295-1.641-0.077-0.398-0.281-0.662-0.613-0.792v0c-0.221-0.087-0.438-0.078-0.652 0.026-0.222 0.108-0.432 0.27-0.629 0.485-0.197 0.215-0.449 0.514-0.757 0.897v0c-0.422 0.54-0.788 0.967-1.099 1.28-0.32 0.318-0.688 0.548-1.104 0.693-0.426 0.148-0.883 0.127-1.371-0.064v0c-0.618-0.242-1.078-0.61-1.38-1.104-0.299-0.5-0.447-1.072-0.442-1.716 0.007-0.65 0.15-1.33 0.428-2.039v0c0.411-1.047 0.921-1.823 1.531-2.326 0.608-0.497 1.273-0.604 1.995-0.322v0c0.163 0.064 0.373 0.169 0.631 0.315v0l-0.742 1.893c-0.107-0.072-0.199-0.123-0.278-0.154v0c-0.28-0.11-0.553-0.063-0.82 0.14-0.261 0.206-0.483 0.542-0.667 1.011v0c-0.23 0.586-0.325 1.077-0.285 1.476 0.042 0.392 0.212 0.646 0.511 0.763v0c0.189 0.074 0.379 0.058 0.57-0.047 0.191-0.105 0.375-0.258 0.552-0.459 0.176-0.201 0.415-0.494 0.716-0.879v0c0.427-0.553 0.807-0.997 1.141-1.331 0.331-0.328 0.712-0.573 1.143-0.734 0.431-0.161 0.897-0.144 1.398 0.052v0c0.722 0.283 1.244 0.694 1.566 1.233 0.326 0.548 0.479 1.152 0.46 1.813-0.021 0.667-0.166 1.342-0.434 2.025z" fill="#ffffff" data-fill-palette-color="primary"></path><path d="M267.042 185.508l-6.321-2.832 0.666-2.054 6.01 3.789zM269.422 187.172l-1.728-0.924 0.598-1.844 1.731 0.914z" fill="#ffffff" data-fill-palette-color="primary"></path><path d="M6.889 143.277c0-1.099 0.891-1.99 1.99-1.989 1.099 0 1.99 0.891 1.99 1.989 0 1.099-0.891 1.99-1.99 1.99-1.099 0-1.99-0.891-1.99-1.99z" fill="#ffffff" data-fill-palette-color="primary"></path><path d="M270.76 143.277c0-1.099 0.891-1.99 1.989-1.989 1.099 0 1.99 0.891 1.99 1.989 0 1.099-0.891 1.99-1.99 1.99-1.099 0-1.99-0.891-1.989-1.99z" fill="#ffffff" data-fill-palette-color="primary"></path></g></svg></g></svg></g></svg></g><g></g></svg></g><defs></defs></svg><rect width="279.72" height="279.72" fill="none" stroke="none" visibility="hidden"></rect></g></svg></g></svg>